<?xml version="1.0" standalone="no"?>
<!DOCTYPE svg PUBLIC "-//W3C//DTD SVG 20010904//EN"
 "http://www.w3.org/TR/2001/REC-SVG-20010904/DTD/svg10.dtd">
<svg version="1.0" xmlns="http://www.w3.org/2000/svg"
 width="482.000000pt" height="516.000000pt" viewBox="0 0 720.000000 405.000000"
 preserveAspectRatio="xMidYMid meet">

<g transform="translate(0.000000,405.000000) scale(0.100000,-0.100000)"
fill="#000000" stroke="none">
<path d="M4591 3949 c-13 -5 -45 -7 -71 -3 -53 7 -116 -15 -179 -63 -26 -21
-52 -29 -103 -35 -129 -13 -307 -99 -353 -171 -5 -8 -39 -53 -74 -99 -74 -96
-92 -137 -121 -279 -12 -57 -23 -113 -26 -124 -2 -11 -7 -33 -9 -50 -3 -16 -8
-38 -11 -48 -3 -10 -1 -23 4 -30 5 -7 6 -21 1 -32 -5 -15 -8 -16 -10 -5 -5 25
-14 -173 -10 -207 2 -18 6 -31 10 -29 7 5 8 -4 13 -195 4 -140 3 -146 -15
-141 -18 4 -19 0 -13 -50 5 -52 69 -264 85 -280 4 -4 6 21 5 57 -1 35 2 62 6
60 4 -2 5 7 2 20 -2 14 0 25 6 25 6 0 14 -25 17 -55 5 -35 11 -52 18 -48 6 4
8 0 4 -10 -3 -10 -2 -17 3 -17 6 0 10 -18 10 -41 0 -22 5 -49 10 -59 6 -11 11
-38 13 -60 1 -22 5 -40 9 -40 4 0 8 -10 7 -22 0 -41 10 -141 16 -146 3 -3 5 2
5 12 0 14 2 15 14 4 8 -7 12 -16 10 -20 -2 -3 11 -51 29 -105 19 -54 32 -105
30 -113 -4 -13 -3 -13 6 0 11 17 11 17 34 -32 9 -21 12 -38 7 -38 -6 0 -10 5
-10 11 0 5 -4 8 -9 5 -5 -3 7 -38 26 -77 19 -40 36 -80 38 -90 2 -11 7 -25 12
-32 4 -6 8 -21 8 -32 1 -11 4 -33 8 -50 4 -16 9 -41 12 -54 2 -12 9 -29 15
-36 6 -8 12 -29 12 -47 0 -18 8 -42 17 -52 13 -16 13 -18 1 -11 -9 5 -7 0 5
-14 15 -18 16 -24 6 -30 -9 -6 -10 -11 -2 -15 6 -4 15 -5 19 -2 5 3 9 0 9 -7
0 -7 3 -22 7 -34 5 -16 3 -23 -6 -24 -7 0 -2 -5 11 -10 19 -7 22 -12 13 -21
-17 -17 -15 -33 2 -19 11 9 13 6 10 -16 -1 -15 3 -31 9 -36 8 -6 7 -7 -3 -4
-8 2 -14 11 -14 20 1 11 -6 15 -25 13 -37 -5 -49 2 -77 43 -21 29 -25 31 -19
11 64 -230 279 -474 470 -532 55 -17 95 -22 185 -21 136 0 245 28 375 96 169
90 400 357 459 533 25 77 24 150 -3 207 -21 43 -23 61 -22 177 1 129 1 129 42
217 56 120 79 179 90 233 5 25 12 56 15 70 11 45 12 55 19 102 6 37 12 48 30
52 12 3 34 18 48 32 39 39 36 75 -13 128 -22 24 -40 51 -40 60 0 10 -4 14 -10
11 -6 -4 -10 17 -9 57 1 45 3 56 9 38 6 -20 9 -13 15 37 5 45 14 68 31 84 18
17 21 26 14 45 -5 13 -8 24 -5 24 2 0 -2 19 -10 41 -8 23 -15 61 -15 86 0 24
-7 57 -15 72 -8 16 -18 48 -21 72 -6 34 -9 39 -15 24 -4 -12 -7 13 -6 57 l1
77 45 -35 c74 -56 88 -61 113 -37 l21 21 -22 36 c-23 37 -98 108 -162 154 -33
24 -40 37 -63 117 -14 49 -30 117 -37 149 -42 218 -174 412 -336 493 -65 32
-85 37 -190 45 -177 14 -190 16 -215 32 -23 15 -131 36 -178 35 -14 0 -36 -5
-49 -10z m-17 -111 c12 -46 7 -68 -15 -68 -11 0 -29 -5 -41 -11 -28 -15 -68
-3 -68 21 0 21 35 50 62 50 25 0 23 -17 -3 -25 -18 -6 -24 -28 -6 -26 4 1 14
1 23 1 14 0 16 7 11 40 -4 34 -2 40 13 40 10 0 20 -10 24 -22z m135 11 c30
-11 43 -41 22 -53 -20 -13 -121 -19 -121 -7 0 6 12 11 28 12 26 1 26 1 -5 10
-18 5 -33 16 -33 24 0 24 59 31 109 14z m141 -17 c42 -32 32 -47 -32 -50 -47
-2 -58 0 -58 13 0 8 6 15 13 15 6 0 4 5 -5 11 -10 5 -18 17 -18 26 0 21 64 11
100 -15z m96 -3 c30 -8 51 -21 65 -40 16 -23 17 -29 5 -29 -8 0 -18 5 -21 10
-10 16 -45 12 -45 -5 0 -10 -8 -14 -22 -11 -16 2 -23 10 -23 25 0 13 -8 27
-18 32 -9 6 -17 14 -17 19 0 13 21 12 76 -1z m-511 -49 c11 -17 -16 -51 -50
-66 -50 -20 -67 -18 -63 8 5 40 96 86 113 58z m-131 -44 c3 -14 3 -31 0 -39
-8 -22 -36 -30 -46 -15 -7 10 -13 8 -25 -9 -20 -30 -42 -30 -39 0 4 36 15 48
41 41 20 -5 27 -1 35 20 12 33 26 33 34 2z m236 -68 c-37 -28 -49 -31 -133
-34 -51 -1 -103 -5 -117 -8 -77 -17 -86 -13 -20 10 85 28 291 74 303 67 5 -3
-10 -19 -33 -35z m331 -18 c48 -17 104 -39 125 -50 l39 -19 -77 -1 c-56 0 -86
5 -110 18 -18 10 -59 27 -92 37 l-59 20 39 12 c22 6 41 12 44 12 2 1 43 -13
91 -29z m-101 -41 c42 -18 49 -24 34 -30 -39 -14 -105 -7 -155 16 l-50 23 28
11 c37 14 78 8 143 -20z m880 -904 c0 -5 -5 -3 -10 5 -5 8 -10 20 -10 25 0 6
5 3 10 -5 5 -8 10 -19 10 -25z m-1929 -148 c-17 -17 -25 21 -10 51 l13 27 4
-34 c2 -18 -1 -38 -7 -44z m1996 -59 c-3 -8 -6 -5 -6 6 -1 11 2 17 5 13 3 -3
4 -12 1 -19z m-1938 -20 c11 -10 13 -10 7 0 -4 6 -2 12 3 12 6 0 11 -7 11 -16
0 -8 5 -12 10 -9 6 3 10 1 10 -4 0 -6 6 -10 13 -8 6 1 11 -4 10 -10 -2 -7 1
-13 5 -13 5 0 19 -25 32 -56 12 -31 40 -76 61 -101 22 -24 39 -49 39 -54 0 -6
5 -7 11 -3 8 4 7 0 -1 -15 -15 -28 -36 -36 -55 -21 -8 6 -20 8 -26 4 -8 -5 -9
-3 -4 5 5 9 0 12 -16 9 -15 -2 -23 -9 -21 -18 2 -8 0 -11 -5 -7 -4 5 -8 12 -8
16 0 10 -49 56 -62 58 -6 1 -10 -5 -8 -15 1 -9 -2 -25 -7 -34 -10 -21 -1 -23
36 -8 14 5 26 6 26 1 0 -10 -30 -25 -44 -22 -5 1 -6 -5 -3 -14 4 -8 3 -15 -2
-15 -5 0 -12 10 -16 23 -5 12 -11 31 -15 42 -4 11 -3 28 3 39 6 13 6 16 -2 12
-6 -4 -12 -2 -12 3 -1 6 -2 14 -3 19 -5 18 -16 102 -19 150 -3 48 -2 53 15 49
10 -3 16 -1 12 4 -8 13 10 11 25 -3z m31 -272 c0 -3 -4 -8 -10 -11 -5 -3 -10
-1 -10 4 0 6 5 11 10 11 6 0 10 -2 10 -4z m97 -42 c-3 -3 -12 -4 -19 -1 -8 3
-5 6 6 6 11 1 17 -2 13 -5z m97 -723 c15 -17 15 -19 1 -25 -9 -3 -13 -2 -10 3
3 5 1 12 -5 16 -9 6 -14 25 -7 25 2 0 12 -8 21 -19z m56 -70 c12 -12 10 -11
-9 0 -14 9 -27 22 -29 30 -3 11 -1 11 10 -1 8 -8 20 -21 28 -29z"/>
<path d="M4659 3826 c16 -19 44 -21 39 -3 -3 6 -15 14 -28 15 -21 3 -22 2 -11
-12z"/>
<path d="M4799 3827 c6 -8 8 -17 4 -20 -3 -4 4 -7 16 -7 28 0 23 20 -8 32 -20
7 -22 6 -12 -5z"/>
<path d="M4930 3810 c8 -5 22 -10 30 -10 13 0 13 1 0 10 -8 5 -22 10 -30 10
-13 0 -13 -1 0 -10z"/>
<path d="M4360 3745 c-10 -12 -10 -15 3 -15 8 0 20 7 27 15 10 12 10 15 -3 15
-8 0 -20 -7 -27 -15z"/>
<path d="M3800 2284 c0 -8 5 -12 10 -9 6 4 8 11 5 16 -9 14 -15 11 -15 -7z"/>
<path d="M3950 2235 c0 -8 4 -15 10 -15 5 0 7 7 4 15 -4 8 -8 15 -10 15 -2 0
-4 -7 -4 -15z"/>
<path d="M3858 2223 c7 -3 16 -2 19 1 4 3 -2 6 -13 5 -11 0 -14 -3 -6 -6z"/>
<path d="M3930 2205 c0 -8 5 -17 12 -21 7 -4 8 -3 4 4 -4 7 -3 12 3 12 5 0 12
-6 14 -12 4 -8 6 -7 6 3 1 9 -8 19 -19 22 -13 3 -20 0 -20 -8z"/>
<path d="M3630 2460 c-9 -6 -10 -10 -3 -10 6 0 15 5 18 10 8 12 4 12 -15 0z"/>
<path d="M3770 1910 c0 -6 -16 -18 -36 -26 -19 -8 -34 -20 -31 -27 5 -17 47
-37 79 -37 l27 0 -15 35 c-8 20 -12 40 -9 45 3 5 1 11 -5 15 -5 3 -10 1 -10
-5z"/>
<path d="M5788 1113 c6 -2 18 -2 25 0 6 3 1 5 -13 5 -14 0 -19 -2 -12 -5z"/>
<path d="M5830 1106 c0 -2 9 -6 20 -9 11 -3 18 -1 14 4 -5 9 -34 13 -34 5z"/>
<path d="M5710 1046 c0 -14 4 -27 8 -30 5 -3 6 8 4 25 -5 35 -12 38 -12 5z"/>
<path d="M5749 1005 c-1 -3 -2 -9 -3 -14 -2 -19 -16 -24 -16 -6 0 30 -9 12
-16 -31 -3 -21 -10 -59 -15 -83 -5 -24 -8 -46 -5 -48 3 -3 10 22 17 56 14 75
31 80 27 9 -3 -44 0 -53 15 -56 16 -3 18 2 16 35 -2 21 0 44 4 50 4 6 4 14 -1
17 -4 2 -7 21 -7 40 1 20 -2 36 -7 36 -4 0 -9 -2 -9 -5z"/>
<path d="M5902 985 c6 -13 30 -33 54 -44 23 -11 48 -29 56 -39 7 -10 24 -25
37 -34 l24 -17 -34 1 c-18 1 -35 -4 -37 -10 -2 -7 -8 -12 -14 -12 -14 0 -40
-29 -34 -38 3 -5 -3 -9 -12 -9 -17 0 -46 32 -47 52 -2 19 -17 43 -29 48 -9 4
-11 -2 -8 -19 2 -13 -2 -32 -9 -41 -8 -9 -9 -14 -3 -10 7 4 14 -2 17 -13 3
-11 1 -18 -4 -14 -8 5 -14 -23 -10 -52 1 -7 -6 -11 -15 -10 -9 0 -18 -6 -19
-14 -23 -133 -62 -313 -115 -540 -17 -69 -32 -135 -35 -147 -4 -18 -1 -23 13
-23 16 0 21 16 35 112 9 61 22 115 28 118 6 4 9 9 8 11 -2 2 5 24 16 49 10 25
19 52 19 60 1 8 11 17 23 20 27 6 62 50 55 69 -3 8 0 11 7 7 6 -4 11 -2 11 3
0 6 9 20 20 31 11 11 18 20 15 20 -3 0 6 18 20 40 14 22 25 42 25 45 0 12 39
43 46 37 4 -4 5 -2 2 3 -3 6 -1 21 4 35 7 20 11 22 18 10 8 -13 10 -12 10 2 0
9 -4 19 -9 22 -13 9 -8 31 12 50 9 10 15 21 12 26 -3 5 4 12 16 15 14 5 18 10
10 14 -9 6 -8 11 4 21 8 7 15 21 15 31 0 22 95 119 118 120 9 0 12 3 5 5 -18
8 -71 -23 -90 -52 -15 -23 -21 -25 -56 -20 -21 4 -50 15 -65 24 -130 87 -122
83 -110 57z"/>
<path d="M6747 892 c-5 -7 -13 -10 -18 -7 -5 4 -9 -1 -9 -9 0 -18 -30 -36 -60
-36 -40 0 -44 -39 -26 -240 19 -203 43 -383 45 -334 0 18 8 67 17 109 10 49
13 94 9 123 -4 26 -8 73 -10 105 -2 32 -9 80 -16 106 -17 67 -9 81 43 81 48 0
58 5 75 36 12 23 1 44 -23 44 -7 0 -14 8 -16 18 -3 12 -6 14 -11 4z"/>
<path d="M3766 857 c3 -10 9 -15 12 -12 3 3 0 11 -7 18 -10 9 -11 8 -5 -6z"/>
<path d="M6253 816 c-7 -32 -7 -46 0 -49 6 -2 3 -6 -7 -10 -10 -4 -15 -3 -11
3 3 6 2 10 -3 10 -5 0 -9 -12 -9 -27 l0 -28 45 43 c25 23 49 42 54 42 4 0 8 5
8 11 0 5 -5 7 -12 3 -6 -4 -20 4 -33 20 l-21 27 -11 -45z"/>
<path d="M3868 658 c49 -95 98 -177 108 -183 10 -5 25 -16 32 -23 20 -18 28
-6 8 13 -9 9 -16 21 -16 26 0 5 -7 17 -16 27 -24 26 -142 211 -170 265 -13 26
-27 47 -30 47 -3 0 35 -77 84 -172z"/>
<path d="M6220 789 c0 -5 5 -7 10 -4 6 3 10 8 10 11 0 2 -4 4 -10 4 -5 0 -10
-5 -10 -11z"/>
<path d="M3338 773 c7 -3 16 -2 19 1 4 3 -2 6 -13 5 -11 0 -14 -3 -6 -6z"/>
<path d="M3350 628 c0 -7 7 -40 14 -73 8 -33 12 -63 10 -67 -3 -5 -2 -8 3 -8
4 0 8 -15 9 -32 0 -42 14 -149 19 -158 3 -4 7 -26 10 -50 3 -23 7 -46 10 -50
8 -13 9 -142 1 -168 -7 -21 -6 -22 68 -22 69 0 75 1 71 20 -2 11 0 22 6 25 5
4 9 13 9 21 0 8 -4 12 -10 9 -6 -3 -10 4 -11 17 0 13 -2 32 -4 43 -4 21 -18
87 -20 95 -1 3 -5 20 -9 37 -4 18 -17 40 -29 48 -12 9 -16 15 -8 15 11 0 11 3
1 15 -6 8 -9 19 -5 25 3 5 2 10 -2 10 -5 0 -17 14 -26 30 -10 17 -16 30 -12
30 3 0 -1 10 -9 23 -17 26 -56 139 -56 162 0 8 -7 15 -15 15 -8 0 -15 -6 -15
-12z"/>
<path d="M5680 589 c0 -5 5 -7 10 -4 6 3 10 8 10 11 0 2 -4 4 -10 4 -5 0 -10
-5 -10 -11z"/>
<path d="M5669 566 c-1 -3 -2 -9 -3 -13 -1 -5 -7 -18 -14 -29 -6 -12 -8 -24
-5 -28 3 -3 2 -6 -4 -6 -14 0 -55 -69 -48 -80 3 -5 -1 -11 -7 -13 -9 -4 -8 -6
2 -6 8 -1 21 14 29 32 8 17 23 44 33 60 11 15 17 27 13 27 -3 0 2 11 10 24 11
16 13 26 6 31 -6 3 -12 4 -12 1z"/>
<path d="M3206 547 c3 -10 9 -15 12 -12 3 3 0 11 -7 18 -10 9 -11 8 -5 -6z"/>
<path d="M3527 465 c20 -38 30 -64 22 -58 -14 12 -15 9 -5 -21 6 -19 14 -32
18 -30 4 2 6 -4 6 -13 -2 -25 32 -194 43 -215 6 -12 4 -22 -7 -33 -14 -14 -14
-16 0 -21 10 -4 14 -15 12 -29 -8 -41 5 -46 104 -43 l93 3 1 53 c1 35 -3 56
-12 61 -10 6 -10 14 -3 35 9 23 8 26 -7 24 -22 -4 -32 -17 -32 -45 0 -15 -5
-21 -13 -17 -15 5 -19 33 -7 49 3 6 3 24 -1 40 l-8 30 3 -33 c1 -19 -1 -29 -6
-24 -14 14 -18 85 -6 100 8 9 14 9 24 1 9 -7 14 -8 14 -1 0 5 -7 13 -16 16 -8
3 -12 11 -8 17 4 8 3 9 -5 5 -6 -4 -9 -12 -6 -17 4 -5 -1 -12 -9 -15 -9 -3
-16 -16 -16 -28 0 -37 -20 -49 -42 -24 -10 12 -18 27 -18 35 0 8 -5 11 -12 7
-10 -5 -10 -4 -1 6 13 14 -3 56 -44 119 -12 19 -20 38 -17 43 3 5 0 7 -6 6 -7
-2 -14 6 -16 17 -1 11 -8 21 -14 23 -5 2 -7 9 -3 15 3 7 3 9 -2 5 -4 -4 -14 0
-22 10 -7 9 3 -14 24 -53z m283 -359 c0 -3 -4 -8 -10 -11 -5 -3 -10 -1 -10 4
0 6 5 11 10 11 6 0 10 -2 10 -4z m-6 -41 c-4 -8 -8 -15 -10 -15 -2 0 -4 7 -4
15 0 8 4 15 10 15 5 0 7 -7 4 -15z"/>
<path d="M3327 445 c3 -27 7 -59 8 -70 1 -11 3 -20 5 -20 1 0 3 -15 4 -32 2
-26 0 -30 -11 -21 -7 6 -22 29 -32 52 -16 34 -19 37 -20 17 -1 -13 6 -47 14
-75 8 -28 24 -106 36 -173 l22 -123 28 0 c34 0 34 2 13 36 -11 17 -18 54 -21
117 -2 51 -7 99 -10 107 -3 8 -7 42 -9 75 -2 33 -10 83 -18 110 l-15 50 6 -50z"/>
<path d="M3241 444 c0 -11 3 -14 6 -6 3 7 2 16 -1 19 -3 4 -6 -2 -5 -13z"/>
<path d="M3252 380 c0 -14 2 -19 5 -12 2 6 2 18 0 25 -3 6 -5 1 -5 -13z"/>
<path d="M3048 368 c5 -5 16 -8 23 -6 8 3 3 7 -10 11 -17 4 -21 3 -13 -5z"/>
<path d="M5560 359 c0 -5 5 -7 10 -4 6 3 10 8 10 11 0 2 -4 4 -10 4 -5 0 -10
-5 -10 -11z"/>
<path d="M2950 355 c0 -3 32 -41 71 -83 98 -107 106 -116 92 -108 -9 5 -11 2
-7 -8 3 -9 10 -16 16 -16 5 0 6 -5 3 -10 -8 -13 -32 0 -65 33 -32 31 -91 67
-110 67 -11 -1 -9 -4 5 -12 11 -6 22 -14 25 -18 3 -3 12 -9 21 -12 9 -4 19
-16 22 -27 l5 -22 -36 22 c-21 12 -47 31 -60 43 -12 11 -31 21 -42 23 -16 2
-11 -9 26 -60 59 -80 75 -111 68 -134 -5 -15 -4 -16 5 -3 10 15 12 13 15 -12
1 -10 41 -14 154 -16 l153 -3 -6 23 c-30 138 -78 328 -81 328 -2 0 -2 -18 1
-40 3 -23 1 -40 -5 -40 -6 0 -10 5 -10 10 0 6 -8 14 -17 17 -24 9 -52 40 -45
49 4 3 -4 1 -17 -6 -13 -6 -21 -8 -17 -2 3 5 -1 13 -10 16 -9 4 -13 2 -8 -5 4
-8 -1 -9 -15 -4 -19 6 -17 -1 19 -59 22 -36 37 -66 33 -66 -3 0 2 -9 11 -19
10 -11 19 -25 20 -33 2 -7 8 -26 14 -41 7 -16 12 -31 12 -35 0 -10 -38 48 -58
88 -25 51 -182 202 -182 175z"/>
<path d="M3261 334 c0 -11 3 -14 6 -6 3 7 2 16 -1 19 -3 4 -6 -2 -5 -13z"/>
<path d="M4030 287 c0 -2 8 -31 19 -63 10 -33 26 -96 36 -142 l18 -82 33 0
c19 0 34 4 34 10 0 5 -6 9 -12 7 -8 -1 -13 10 -13 28 -1 46 -16 98 -33 118 -8
9 -12 17 -7 17 4 0 0 11 -9 24 -8 14 -12 26 -8 28 5 2 -7 16 -25 31 -18 16
-33 27 -33 24z"/>
<path d="M5445 230 c-3 -5 1 -10 10 -10 9 0 13 5 10 10 -3 6 -8 10 -10 10 -2
0 -7 -4 -10 -10z"/>
<path d="M6685 185 c3 -27 8 -80 12 -117 3 -39 11 -68 17 -68 8 0 10 29 7 92
-3 51 -7 82 -9 68 -4 -21 -7 -16 -18 25 l-13 50 4 -50z"/>
<path d="M3778 198 c5 -20 15 -17 18 6 1 7 -4 13 -11 13 -7 0 -10 -8 -7 -19z"/>
<path d="M3806 145 c-3 -9 0 -15 9 -15 9 0 12 6 9 15 -4 8 -7 15 -9 15 -2 0
-5 -7 -9 -15z"/>
<path d="M2828 135 c-10 -16 108 -135 133 -135 19 0 13 10 -37 60 -32 33 -64
60 -71 60 -6 0 -13 5 -15 12 -3 7 -7 8 -10 3z"/>
<path d="M3860 107 c0 -20 -3 -43 -7 -53 -4 -12 -3 -15 5 -10 11 6 17 -12 13
-37 0 -4 8 -7 19 -7 11 0 20 2 20 4 0 29 -23 111 -35 122 -13 14 -15 12 -15
-19z"/>
<path d="M2760 67 c0 -2 20 -18 44 -35 29 -21 56 -32 78 -32 27 1 30 2 15 11
-9 6 -14 15 -11 21 4 7 2 8 -4 4 -7 -4 -18 -4 -24 0 -7 5 -21 9 -32 10 -11 0
-22 6 -24 12 -3 10 -42 18 -42 9z"/>
</g>
</svg>
