<?xml version="1.0" standalone="no"?>
<!DOCTYPE svg PUBLIC "-//W3C//DTD SVG 20010904//EN"
 "http://www.w3.org/TR/2001/REC-SVG-20010904/DTD/svg10.dtd">
<svg version="1.0" xmlns="http://www.w3.org/2000/svg"
 width="111.000000pt" height="48.000000pt" viewBox="0 0 600.000000 252.000000"
 preserveAspectRatio="xMidYMid meet">

<g transform="translate(0.000000,252.000000) scale(0.100000,-0.100000)"
fill="#E1BEE7" stroke="none">
<path d="M2289 2059 c-52 -20 -66 -103 -24 -144 20 -21 34 -25 85 -25 76 0
100 20 100 84 0 62 -23 88 -86 92 -27 2 -61 -1 -75 -7z"/>
<path d="M1700 1670 l0 -390 95 0 95 0 0 110 c0 61 4 110 8 110 4 0 24 -48 43
-107 l35 -108 112 -3 111 -3 -59 146 -59 146 60 141 c32 77 59 142 59 144 0 2
-46 4 -103 4 l-102 0 -28 -77 c-15 -43 -36 -96 -47 -118 l-18 -40 -2 145 c-1
80 -3 177 -3 215 l-2 70 -97 3 -98 3 0 -391z"/>
<path d="M176 2031 c-3 -5 32 -122 79 -260 l85 -251 0 -120 0 -120 100 0 100
0 0 109 0 109 90 262 c50 144 90 266 90 271 0 11 -198 10 -205 -1 -3 -4 -16
-58 -29 -120 -23 -106 -31 -129 -40 -119 -3 2 -16 56 -31 119 -14 62 -28 118
-31 122 -7 11 -201 10 -208 -1z"/>
<path d="M956 1870 c-104 -18 -167 -95 -187 -225 -20 -128 23 -276 96 -330 62
-46 159 -57 293 -34 l65 12 -7 70 c-4 39 -8 73 -11 75 -2 3 -24 -1 -49 -7 -55
-14 -131 -14 -156 -1 -24 13 -42 64 -27 79 7 7 60 11 144 11 l133 0 0 98 c-1
101 -14 158 -47 194 -42 48 -153 74 -247 58z m92 -176 c16 -11 22 -25 22 -50
l0 -35 -52 3 c-49 3 -53 5 -56 30 -2 17 4 34 17 47 25 25 39 26 69 5z"/>
<path d="M1593 1871 c-23 -4 -52 -16 -64 -26 -20 -19 -22 -19 -34 -2 -10 14
-28 17 -99 17 l-86 0 0 -290 0 -290 100 0 100 0 0 173 c0 94 3 182 6 194 7 25
50 43 100 43 l34 0 0 85 c0 47 0 88 1 92 1 11 -10 11 -58 4z"/>
<path d="M2839 1871 c-20 -4 -52 -17 -71 -29 -43 -27 -44 -27 -51 -2 -5 18
-14 20 -96 20 l-91 0 0 -290 0 -290 100 0 100 0 0 200 0 200 24 6 c62 15 61
18 64 -204 l2 -202 100 0 100 0 0 249 c0 156 -4 260 -11 280 -17 49 -92 77
-170 62z"/>
<path d="M2250 1565 l0 -285 100 0 100 0 0 285 0 285 -100 0 -100 0 0 -285z"/>
<path d="M4828 1170 c-120 -36 -171 -141 -171 -350 0 -131 19 -223 59 -283 14
-22 28 -36 31 -33 3 3 19 -6 35 -19 78 -66 257 -58 336 15 49 44 81 124 94
229 18 153 -13 320 -70 385 -9 10 -39 29 -67 42 -41 19 -66 24 -135 23 -47 0
-97 -4 -112 -9z m161 -177 c29 -23 40 -78 41 -186 0 -61 5 -95 15 -111 12 -18
13 -30 6 -50 -6 -14 -13 -26 -16 -26 -2 0 -1 11 4 23 5 13 5 30 1 38 -7 11
-10 9 -15 -6 -4 -11 -10 -28 -15 -37 -6 -11 -5 -18 3 -21 23 -8 -73 -19 -111
-12 -25 4 -38 12 -40 23 -1 9 -6 53 -13 96 -15 111 0 243 31 268 28 23 82 23
109 1z m73 -175 c-21 -21 -14 -66 13 -84 21 -14 31 -15 53 -5 25 11 26 10 8
-4 -11 -8 -27 -15 -36 -15 -26 0 -60 38 -60 68 0 25 15 52 29 52 3 0 0 -5 -7
-12z m97 -22 c-3 -3 -11 5 -18 17 -13 21 -12 21 5 5 10 -10 16 -20 13 -22z
m-306 -281 c12 -8 17 -15 13 -15 -20 0 -46 35 -45 59 l2 26 4 -27 c2 -15 14
-35 26 -43z"/>
<path d="M220 810 l0 -360 80 0 80 0 2 167 c2 112 7 168 14 170 6 2 30 -38 53
-89 22 -51 45 -92 51 -91 5 2 7 -3 4 -11 -3 -7 9 -43 25 -80 l31 -66 90 0 90
0 0 133 c0 120 -2 134 -20 150 -26 22 -26 69 0 92 18 17 20 31 20 182 l0 163
-85 0 -85 0 0 -176 c0 -123 -3 -175 -11 -172 -6 2 -43 81 -81 176 l-71 172
-93 0 -94 0 0 -360z m419 -83 c-2 -1 -13 -9 -24 -17 -19 -14 -19 -14 -6 3 7 9
18 17 24 17 6 0 8 -1 6 -3z m74 -62 c0 -15 -6 -32 -12 -38 -10 -9 -10 -6 -3
14 12 30 1 55 -19 43 -11 -6 -11 -4 0 10 18 21 34 8 34 -29z m-99 -31 c3 -8 2
-12 -4 -9 -6 3 -10 10 -10 16 0 14 7 11 14 -7z m-28 -36 l19 -23 -25 20 c-14
11 -27 21 -29 22 -2 2 0 3 6 3 5 0 18 -10 29 -22z m87 15 c-7 -2 -21 -2 -30 0
-10 3 -4 5 12 5 17 0 24 -2 18 -5z"/>
<path d="M862 872 l3 -299 28 -42 c42 -63 97 -85 217 -86 108 0 156 13 206 57
57 50 64 93 64 400 l0 268 -95 0 -95 0 0 -263 c0 -296 0 -297 -73 -297 -65 0
-67 10 -67 302 l0 258 -96 0 -95 0 3 -298z"/>
<path d="M1490 810 l1 -360 95 0 94 0 0 129 c0 126 7 158 32 133 9 -9 32 -84
68 -219 l11 -43 61 0 62 0 -30 32 -29 33 35 -32 c52 -47 133 -39 88 9 -7 7
-14 27 -15 43 -1 17 -6 39 -11 50 -5 11 -20 55 -33 98 l-23 77 27 28 c39 40
57 93 57 164 -1 108 -32 165 -105 199 -34 16 -67 19 -213 19 l-172 0 0 -360z
m274 180 c5 -5 11 -32 14 -59 6 -68 -15 -101 -63 -101 l-35 0 0 83 c0 46 3 87
7 91 9 9 64 -1 77 -14z"/>
<path d="M2080 949 c0 -173 3 -219 13 -213 6 4 5 0 -3 -9 -10 -11 -14 -31 -12
-63 4 -44 5 -46 33 -42 15 3 26 1 23 -4 -3 -4 -16 -8 -30 -8 -23 0 -24 -2 -24
-80 l0 -80 180 0 180 0 0 59 c0 33 3 66 6 75 5 13 -8 16 -88 18 l-93 3 0 68
c0 37 -2 66 -5 64 -50 -28 -59 -30 -85 -13 -14 9 -25 21 -25 26 0 6 9 1 20
-10 24 -24 38 -25 68 -4 25 17 30 62 10 83 -10 11 -10 13 0 7 9 -6 12 31 12
168 l0 176 -90 0 -90 0 0 -221z m76 -285 l2 -29 -5 28 c-3 20 -9 27 -19 23 -9
-3 -12 -2 -9 5 12 18 30 3 31 -27z"/>
<path d="M2460 1161 c0 -6 36 -115 80 -243 l80 -233 0 -117 0 -118 95 0 95 0
0 114 0 114 85 246 84 246 -98 0 -98 0 -23 -115 c-15 -72 -28 -115 -36 -115
-14 0 -15 2 -44 133 l-22 97 -99 0 c-55 0 -99 -4 -99 -9z"/>
<path d="M3050 811 l0 -361 150 0 c93 0 150 4 150 10 0 6 -5 10 -12 10 -6 0
-8 3 -5 7 4 3 15 -1 25 -10 37 -33 136 16 170 84 l21 43 -27 25 c-16 15 -21
20 -12 14 32 -25 41 -16 38 40 -2 39 -7 51 -17 49 -11 -2 -12 0 -3 10 14 18
-17 73 -47 83 -28 9 -26 18 8 53 77 76 60 229 -31 279 -28 15 -63 19 -220 21
l-188 4 0 -361z m274 193 c10 -10 16 -33 16 -64 0 -58 -18 -80 -66 -80 l-34 0
0 80 0 80 34 0 c19 0 42 -7 50 -16z m13 -271 c7 -9 13 -41 13 -72 0 -68 -18
-91 -72 -91 l-38 0 0 88 c0 49 3 92 8 96 12 13 76 -2 89 -21z m160 -185 c-3
-7 -5 -2 -5 12 0 14 2 19 5 13 2 -7 2 -19 0 -25z m-83 -47 c-5 -6 -34 20 -34
30 0 5 8 1 18 -8 10 -10 17 -20 16 -22z m66 14 c-7 -8 -17 -15 -23 -15 -6 0
-2 7 9 15 25 19 30 19 14 0z"/>
<path d="M3630 1006 c0 -122 3 -166 13 -169 10 -4 10 -6 0 -6 -16 -1 -18 -97
-3 -106 16 -10 49 4 61 27 15 27 4 63 -23 76 -13 6 -17 11 -10 11 19 1 52 -37
52 -59 0 -27 -43 -70 -70 -70 -19 0 -20 -6 -20 -130 l0 -130 193 2 192 3 3 73
3 72 -85 0 c-116 0 -116 0 -116 76 l0 64 85 0 85 0 0 70 0 69 -82 3 -83 3 -3
58 -3 57 94 0 c110 0 107 -3 107 101 l0 69 -195 0 -195 0 0 -164z"/>
<path d="M4110 810 l0 -360 90 0 90 0 0 141 c0 107 3 140 12 137 7 -3 33 -66
57 -141 l44 -137 103 0 103 0 -34 93 c-18 50 -47 129 -64 175 l-31 83 69 182
69 182 -96 3 c-52 1 -98 -1 -102 -5 -4 -4 -29 -72 -56 -150 -28 -81 -54 -143
-61 -143 -10 0 -13 37 -13 150 l0 150 -90 0 -90 0 0 -360z"/>
<path d="M5280 1133 c4 -21 34 -183 66 -360 l57 -323 148 0 147 0 6 28 c8 40
116 676 116 685 0 4 -44 6 -97 5 l-98 -3 -23 -230 c-33 -324 -47 -329 -86 -30
-15 110 -29 215 -33 233 l-5 32 -103 0 -103 0 8 -37z"/>
<path d="M722 818 c-17 -17 -15 -63 3 -78 13 -11 15 -6 15 39 0 56 0 57 -18
39z"/>
</g>
</svg>
